<svg id="Calque_1" data-name="Calque 1" xmlns="http://www.w3.org/2000/svg" viewBox="0 0 512 512"><path d="M1.93,136.67c.82-3,1.57-6,2.49-9C12.07,103.12,35,87.16,61,88.11A11.33,11.33,0,0,0,67.39,86c4.66-3.26,9.94-1.72,12,3.68.57,1.52,1.58,3.36,2.9,4,18.72,9.59,28.55,25.13,31.64,45.63,2.72,18,7.39,35.51,16.11,51.69.92,1.71,2,3.3,3.72,6,1-7.83,1.87-14.47,2.81-21.09,3.06-21.49,8.35-42.35,17.57-62.12A7.08,7.08,0,0,0,154,109c-2-5.51.49-9.8,6.29-11a7.91,7.91,0,0,0,4.56-2.8C188.94,61.2,222.75,48.8,263,51c28.95,1.55,53.84,12.1,73.32,34.13a31.09,31.09,0,0,1,2.24,2.65c2.47,3.52,2.07,7.7-.91,10.27-3.13,2.7-6.92,2.53-10.22-.61-4.78-4.55-9.23-9.47-14.28-13.68-9.05-7.57-22.92-13.74-31.51-14.41,9.65,11.76,16,24.85,20.59,38.87,7,21.48,10.3,43.65,11.82,66.08,3.82,56.59-.38,112.87-7.75,168.94-4.36,33.19-9.84,66.24-14.8,99.35-.12.8-.09,1.63-.17,3.08,9.8-.16,19.55,1.59,28.85-2.12,11.39-4.54,17.62-13.31,19.65-25.68-1.24-.21-2.29-.41-3.35-.55-4.4-.58-7.2-3.46-7.17-7.38s3.06-7.59,7.27-7.21c5.88.54,6.91-2.26,7.82-7.14,10.49-56.41,18.32-113.07,17.29-170.63-.07-4.3-.14-8.59-.36-12.88-.21-4.11-.6-8.22-.92-12.47a6.51,6.51,0,0,0-1.47,0c-3.91,1-7-.34-8.76-3.78a7,7,0,0,1,2.14-9.35c5.68-4.09,6.47-9.09,4.61-15.47-4.19-14.38-7.92-28.88-12.05-43.27-1.47-5.1-.32-9.22,3.74-10.81s8.42.18,10,5.31c4.22,13.51,8,27.16,11.92,40.76.31,1.09.52,2.21.85,3.58,1.57-.19,3.19-.86,4.37-.41,2.31.9,5.26,1.94,6.3,3.82s.1,4.88-.07,7.38a1.91,1.91,0,0,1-.89,1.15c-7.31,4.73-6.35,11.54-6.05,19.09.87,22.41.68,44.87.9,67.31,0,1.31,0,2.62,0,4.43a46.27,46.27,0,0,0,19.22-14.58,168.32,168.32,0,0,0,10.14-15.22,56.37,56.37,0,0,1,28.82-23.82,10.37,10.37,0,0,0,4.44-3.91c2.87-4.28,7.45-5.12,11.52-2.19a13.94,13.94,0,0,0,6.38,2.68c31.36,2.93,53.79,27.63,52.76,58.42a54.84,54.84,0,0,1-7.16,25q-44.19,79.8-134.77,90.73c-5,.6-7.4,2.2-7.61,7.23a62.59,62.59,0,0,1-1.28,7.81c.46.39.76.87,1.17,1,4.32,1.19,7.22,3.74,6.58,8.46s-3.93,6.43-8.51,6.57c-1.05,0-2.56,1.63-3,2.82-1.36,3.88-1.83,8.11-3.49,11.83-8.1,18.18-22.33,28.12-42.17,28.36-36.33.45-72.67.18-109,.09a44.25,44.25,0,0,1-25.19-7.7c-4.72-3.19-6-7.46-3.49-11.27s6.8-4.4,11.29-1.31c10.88,7.51,23.07,5.07,35.46,5.41-1.94-11.68-3.88-22.86-5.64-34.07C201.71,343.07,193,274.34,193.86,204.74c.41-31.11,2.87-62,11.69-92,4.4-15,10.62-29.12,20.49-41.43a17.9,17.9,0,0,0,1.25-2.53c-23.78,5.93-40.59,19.65-53.7,40.37a82.57,82.57,0,0,1,6.49,5.37c3.93,3.93,4.21,8.05,1.07,11.32s-7.38,2.94-11.38-.68c-.85-.77-1.66-1.58-3.38-3.21-2.78,7.8-5.66,14.88-7.85,22.17-8.13,27.1-10.72,55-11.14,83.13-.72,49,5.07,97.49,13.38,146,4.8.8,10.39.81,10.78,7.59.29,5.15-3.17,7.17-7.87,8.21,1.38,7.24,2.73,14.33,4.09,21.42,1.1,5.74-.8,9.6-5.24,10.58s-8-1.71-9.15-7.34c-1.71-8.21-3.31-16.45-4.94-24.56-10.62-1.7-12.83-3.06-12.87-7.83s2.67-7,10-7.9c-1-6.61-2.07-13.22-3.06-19.83s-1.76-13.08-3-19.56c-.29-1.55-1.74-3.69-3.08-4.09-64.23-19-101.58-64.19-121.57-125.72-5.23-16.08-8.07-32.94-12-49.44-.26-1.09-.66-2.14-1-3.21ZM208.5,233.35c.82,13.37,1.8,34.31,3.44,55.19,4,51.52,11.78,102.55,20.65,153.43.59,3.34,2,3.85,4.85,3.83,11.39-.12,22.78-.15,34.17,0,3.19,0,4.47-.74,5.07-4.18,8.34-47.79,15.52-95.73,19.88-144.06,4.25-47.25,6.47-94.53.68-141.81-2.51-20.53-6.71-40.68-15.93-59.43-5.55-11.27-12.85-21.11-23.54-28.12-2.2-1.45-4.07-1.88-6.19,0-3.85,3.34-8.13,6.27-11.54,10-10.95,12-16.85,26.66-21.1,42.05C209.41,154.8,208.43,190.24,208.5,233.35ZM80,109.67c-.2,1.73-.34,2.68-.43,3.63-.41,4.48-3,6.93-7.36,7.17-4,.23-7-3-7.36-7.71a26.31,26.31,0,0,1,0-4.94c.36-3.42-1.11-4.56-4.46-4.8-24.86-1.8-46.86,21.18-43.29,45.85,3.68,25.38,10,50.08,20.52,73.59,17.7,39.62,44.68,70.14,85.57,86.93,4.33,1.78,8.8,3.23,13.38,4.89a10.94,10.94,0,0,0,.33-2.11c-3.12-30.22-5-60.51-4.28-90.92,0-1.39-1.12-2.92-2-4.21-5.4-8-11.68-15.63-16.16-24.16C106,176.69,101.86,159,99.08,141,97.09,128.14,91.79,117.49,80,109.67Zm284,262.18c3.39-.43,6.61-.72,9.79-1.25,52.59-8.77,91.21-37.06,116.09-84,11.19-21.08,1-47.58-21.16-56.37-4.88-1.94-10.29-2.52-15.79-3.8-.42,5.3-1.84,9.47-6.26,9.46-3.34,0-6.67-2.47-11.59-4.49-7.45,3-14,9.93-18.8,18.72-8.89,16.15-21.4,28.29-38.87,35-1.34.52-2.71,2.66-2.91,4.19-1.35,10.8-2.21,21.66-3.6,32.46C368.84,338.28,366.43,354.72,364.05,371.85Z"/><path d="M175.49,262.23a69,69,0,0,1-.05,6.9,6.61,6.61,0,0,1-6.4,6.36c-3.95.39-7.27-1.37-7.7-5.27a74.16,74.16,0,0,1,0-16.65c.46-3.91,3.83-5.61,7.77-5.17a6.56,6.56,0,0,1,6.31,6.43C175.67,257.28,175.49,259.76,175.49,262.23Z"/><path d="M325.92,316.74c0-1.15,0-2.3,0-3.45.19-4.9,3.13-8.13,7.38-8.12s7.21,3.22,7.44,8.15c.1,2.13.09,4.28,0,6.41-.21,5.3-3.17,8.43-7.73,8.29-4.35-.14-6.95-3.18-7.11-8.32C325.89,318.72,325.92,317.73,325.92,316.74Z"/><path d="M275,126.58c-1.15,2.43-1.61,4.3-2.73,5.6a83.48,83.48,0,0,1-8,8.06A7.19,7.19,0,0,1,254,140c-2.87-2.94-3-6.9,0-10.23,2.52-2.82,5-5.86,8.16-7.86a9.66,9.66,0,0,1,7.61-1C271.89,121.7,273.27,124.62,275,126.58Z"/><path d="M248.63,208.31a34,34,0,0,1,0,5.44c-.66,4.13-3.2,6.5-7.44,6.46-4,0-6.66-2.36-7.1-6.24a49.45,49.45,0,0,1,0-11.85c.52-4.09,3.33-6.39,7.61-6.2,4,.18,6.33,2.59,6.92,6.46A40.43,40.43,0,0,1,248.63,208.31Z"/><path d="M261.81,327.82c.93.71,3.69,1.85,4.62,3.84s1,5.45-.15,7.27a25.48,25.48,0,0,1-7.93,7.91,8.37,8.37,0,0,1-7.28.08c-1.86-1.07-3.36-4.05-3.6-6.35C247,336.12,255.67,327.89,261.81,327.82Z"/><path d="M83.21,203.35c0,2.13.14,4.28,0,6.4-.32,4.2-2.79,6.59-6.88,7.06a7.14,7.14,0,0,1-7.75-6.66,74.4,74.4,0,0,1,.07-13.76c.46-4,3.23-6.45,7.52-6.25s6.59,2.66,7,6.81A62.05,62.05,0,0,1,83.21,203.35Z"/><path d="M101.66,263.18a45.9,45.9,0,0,1-5.64-.45c-3.93-.76-6-3.3-5.94-7.3s2.29-6.59,6.27-7a62.4,62.4,0,0,1,10.85-.06c4.21.32,6.63,2.92,6.68,7.14s-2.38,6.7-6.54,7.32C105.56,263.12,103.73,263.07,101.66,263.18Z"/><path d="M41.39,138.62c5.91.18,15.13,8.9,14.73,13.21-.21,2.3-1.72,5.39-3.57,6.37a9.1,9.1,0,0,1-7.67-.13,24.24,24.24,0,0,1-7.94-7.92c-1.21-2-1.23-5.51-.29-7.7C37.51,140.47,40.39,139.37,41.39,138.62Z"/><path d="M434.64,290.64a59.11,59.11,0,0,1-.34,6.4c-.67,4.18-3.28,6.4-7.52,6.25-4-.14-6.55-2.42-6.84-6.4a85.59,85.59,0,0,1,0-12.81c.32-4.21,3.1-6.56,7.26-6.55,3.92,0,6.48,2.28,7.1,6.22A60.67,60.67,0,0,1,434.64,290.64Z"/><path d="M403.61,323c2,0,4-.16,5.91,0,3.93.41,6.35,2.66,6.71,6.63.38,4.25-1.84,7.28-5.88,7.81a54.47,54.47,0,0,1-13.74,0c-3.83-.48-6-3.51-5.82-7.42.24-4.08,2.66-6.65,6.91-7C399.65,322.82,401.64,323,403.61,323Z"/><path d="M466.19,263.18c5.21.16,9,5.73,6.32,10.17a24.6,24.6,0,0,1-7.86,7.93c-4.51,2.82-10.43-1.22-10.39-6.57C454.3,270.06,461.56,263,466.19,263.18Z"/></svg>