<svg id="Calque_1" data-name="Calque 1" xmlns="http://www.w3.org/2000/svg" viewBox="0 0 512 512"><path d="M177.52,51c3.19,2.37,6.64,4.45,9.52,7.14,33.72,31.44,62.52,66.73,83.74,107.84,11.74,22.74,20.58,46.51,24.47,71.94.1.63.28,1.25.51,2.22a29.34,29.34,0,0,0,3-1.21c24.76-13.49,51.43-21.1,79.14-25.3a331.29,331.29,0,0,1,69-3.39c7.41.43,10.67,3.51,11,10.89,2,45.4-3,89.75-20.86,132-10.87,25.69-26.18,48.28-49.39,64.59-33.36,23.45-79,27.74-114.51,4.94-2.69-1.73-5.25-3.64-8.18-5.68-1,.94-2,1.91-3,2.91Q243.83,438,225.71,456.07c-4.6,4.58-8.91,5.44-13.22,2.79a9.15,9.15,0,0,1-3-13.17,26.88,26.88,0,0,1,3.37-3.94c12.72-12.74,25.47-25.46,38.06-38L236.7,379.38A116.51,116.51,0,0,1,185,396.87V412.4c0,12-.15,24,.07,36,.11,6-1.85,10.31-7.59,12.58h-4c-5.85-2.13-7.79-6.55-7.74-12.48.12-15.88,0-31.76.11-47.64,0-3.15-.82-4.38-4.1-4.76-26.71-3.06-49.55-14.56-68.32-33.48C61.68,330.59,50,291.31,54.48,247c3.45-34.16,16.08-65.32,33.15-94.75,20.3-35,45.86-65.82,75.44-93.34,3.18-3,7-5.28,10.45-7.89Zm9.13,32.22-1.26.85V377.36a96.06,96.06,0,0,0,43.77-16c2.08-1.38,2.59-2.74,2.27-5.22-2.71-20.93.79-40.88,9.84-59.89,7.89-16.57,19.38-30.2,33.62-41.67,1.23-1,2.67-3.1,2.42-4.36-2.75-13.68-4.78-27.63-9-40.87-9.82-30.79-26.11-58.32-46-83.61C210.84,111.24,198.55,97.38,186.65,83.22Zm-21.11.33A19.22,19.22,0,0,0,164,84.8C131.73,117.64,104.52,154,87.08,196.89c-11.2,27.53-17.54,56.08-12.87,86,6.14,39.35,26.15,69.06,62.52,86.68a78.64,78.64,0,0,0,28.81,7.68ZM279.67,403.77a76.06,76.06,0,0,0,6.61,4.3c32.3,17.06,63.15,12.89,92.16-7.53,20-14.08,32.38-34.36,41.75-56.54,9.25-21.91,14.22-44.92,16.79-68.46,1.15-10.53,1.67-21.14,2.46-31.54Q359.45,324,279.67,403.77Zm-15.33-15.41L423.75,229.05a10.65,10.65,0,0,0-1.63,0c-17,1.77-34.05,2.75-50.84,5.53-28.8,4.76-56,14.22-79.88,31.69-23.53,17.21-38.49,39.64-41.25,69.18C248.31,355.06,253.1,373,264.34,388.36Z"/><path d="M91.9,263.24c0-22.12,6.57-45.83,17-68.59a9.45,9.45,0,0,1,12.71-5c4.64,2.06,6.64,7,4.77,12.48-3.69,10.82-8.21,21.4-11.15,32.41-5.49,20.6-6,41.25,1.73,61.67,3,7.85-2.42,14.59-10.13,13.52-4.18-.59-6.39-3.36-7.84-7.08C94.42,291,92.23,278.85,91.9,263.24Z"/><path d="M134.8,176.05a9.39,9.39,0,0,1-9.35-9.77,9.25,9.25,0,0,1,9.54-9.12,9.44,9.44,0,0,1,9.63,9.49A9.59,9.59,0,0,1,134.8,176.05Z"/><path d="M268.93,339.37c1.76-22.6,12.19-40.6,29.81-54.34,7.31-5.69,15.47-10.33,23.48-15,5.49-3.23,11.07-1.63,13.84,3.23s.78,10-4.56,13.52c-8.33,5.44-17,10.51-24.65,16.81-11.36,9.37-17.41,21.94-18.74,36.72-.7,7.68-6.29,11.74-12.77,9.52C271.17,348.34,268.73,344.38,268.93,339.37Z"/><path d="M359.3,256.91a9.58,9.58,0,0,1,9.47,9.73,9.78,9.78,0,0,1-9.55,9.35,9.57,9.57,0,0,1-9.58-9.62A9.38,9.38,0,0,1,359.3,256.91Z"/></svg>