<svg id="Calque_1" data-name="Calque 1" xmlns="http://www.w3.org/2000/svg" viewBox="0 0 512 512"><path d="M484.08,258.67c-2.78,5-7.05,6.48-12.61,6.34-11-.29-21.91-.09-34.1-.09l6.78,6.83c6.61,6.62,13.31,13.15,19.8,19.88,3.43,3.56,3.77,7.74,1.43,11.36s-5.77,4.84-9.62,3.64a16.43,16.43,0,0,1-6.11-4.2c-11.73-11.57-23.31-23.3-35-34.87-1.25-1.23-3.16-2.5-4.79-2.52-14.24-.2-28.49-.12-43.41-.12.57,1.79,1,3.25,1.49,4.69q8.64,25,17.31,50c3.6,10.44,1.18,14.53-9.57,16.54q-26.44,5-52.87,10.05c-1.14.22-2.24.62-3.73,1,7.38,12.82,14.55,25.43,22,37.89.81,1.36,3.07,2.13,4.81,2.61,15.73,4.28,31.49,8.45,47.24,12.65a29.34,29.34,0,0,1,3,.9c4.93,1.9,7.28,6.2,6,10.94a8.46,8.46,0,0,1-10.4,6.08c-9-2.05-17.8-4.59-26.68-6.91-3.13-.82-6.26-1.6-10.44-2.67L366,428.67c2.15,3.73,4.36,7.42,6.44,11.18,3.2,5.77,2.25,10.74-2.49,13.62-4.54,2.75-9.69,1-13-4.65-5.9-10.09-11.71-20.24-18.06-31.23-2.55,9.44-4.86,18-7.18,26.53-.85,3.15-1.62,6.32-2.58,9.44-1.72,5.57-6.28,8.47-11,7.11-4.95-1.41-7.56-5.89-6.09-11.64q6.23-24.34,12.94-48.55a10.57,10.57,0,0,0-1.1-9.13c-6.87-11.44-13.42-23.07-21.67-36-.53,1.23-.79,2.68-1.62,3.65q-17.83,20.79-35.8,41.46c-6.26,7.24-11.4,7.24-17.66,0q-17.76-20.56-35.55-41.1c-.85-1-1.78-1.89-3.06-3.23-4.79,8.25-9.4,16.14-13.95,24.06-3,5.14-7.52,10.1-8.24,15.56s2.44,11.42,4,17.15q4.53,17,9.12,33.92c.16.57.32,1.14.44,1.72,1.29,6.13-1,10.64-6.06,12.09-4.87,1.39-9.44-1.59-11.13-7.55-2.11-7.41-4-14.88-6-22.32-1.11-4.11-2.27-8.2-3.64-13.15-6,10.42-11.56,20-17.12,29.64-4.08,7-8.94,9.18-13.89,6.17-5.11-3.1-5.65-8.13-1.6-15.17,5.47-9.5,11-19,16.82-29.13a35.21,35.21,0,0,0-3.78.54c-10.31,2.74-20.59,5.63-30.93,8.27-8,2-13.94-2.62-12.73-9.74.82-4.86,4.51-6.64,8.72-7.76,14.6-3.9,29.15-8,43.85-11.58,5.58-1.35,9.24-3.79,12-9,5.75-11,12.29-21.61,18.77-32.84-11.39-2.19-22.27-4.3-33.15-6.38-8.3-1.59-16.62-3.1-24.91-4.77-9.11-1.82-11.69-6.31-8.68-15q8.87-25.64,17.78-51.25c.47-1.37.87-2.77,1.46-4.68-11.91,0-23.47.52-35-.18-7.81-.47-13.22,2-18.48,7.69-9.93,10.82-20.67,20.9-31,31.31-2.88,2.88-6.54,4.54-10,2.65-2.5-1.36-5.2-4.52-5.52-7.16s1.49-6.3,3.49-8.48c6.94-7.52,14.38-14.59,21.62-21.84,1-1,2-2.11,3.8-4H65c-8.16,0-16.34-.23-24.49.08-5.57.21-9.83-1.37-12.61-6.33v-5.34c2.78-5,7-6.49,12.6-6.34,10.95.29,21.92.09,34.12.09-2.54-2.56-4.34-4.38-6.15-6.19-6.82-6.83-13.73-13.57-20.43-20.51-3.44-3.56-3.78-7.73-1.45-11.35s5.76-4.87,9.61-3.66a16.45,16.45,0,0,1,6.12,4.18c11.73,11.57,23.31,23.3,35,34.86,1.25,1.24,3.16,2.53,4.78,2.55,14,.19,27.91.1,41.86.08a8.5,8.5,0,0,0,1.59-.39c-4.34-12.54-8.64-25-13-37.4-2.23-6.44-4.57-12.85-6.69-19.33-2.36-7.21.24-11.9,7.75-13.41,18-3.62,36.09-7,54.14-10.49,1.58-.31,3.15-.68,5.19-1.13-7.51-13-14.76-25.75-22.26-38.33-.74-1.24-2.91-1.84-4.54-2.28-15.73-4.27-31.49-8.44-47.23-12.65a26.49,26.49,0,0,1-3.81-1.24,8.8,8.8,0,0,1-5.31-10.53,8.36,8.36,0,0,1,9.9-6.22c8,1.71,15.8,4,23.68,6,4.28,1.11,8.55,2.24,13.88,3.64-1.21-2.2-1.93-3.54-2.68-4.85-5-8.74-10.13-17.45-15.1-26.22-3.26-5.74-2.29-10.88,2.37-13.63s9.7-1.08,13,4.57c5.93,10.08,11.73,20.24,18.08,31.23l7.17-26.5c.89-3.29,1.64-6.63,2.7-9.86,1.73-5.29,6.26-8,10.91-6.69s7.53,5.74,6.15,11.19q-6.24,24.56-13,49a10.54,10.54,0,0,0,1.11,9.13c6.86,11.43,13.41,23.06,20.44,35.23,1.29-1.36,2.38-2.43,3.37-3.58q17.79-20.53,35.54-41.1c5.9-6.81,11.19-6.84,17.06-.06q17.79,20.52,35.55,41.08c.95,1.1,2,2.13,3.26,3.53,1-1.64,1.89-2.94,2.67-4.3,6.11-10.51,12.12-21.08,18.35-31.53a8.88,8.88,0,0,0,1-7.5c-4.27-15.57-8.41-31.19-12.59-46.79-.19-.72-.43-1.42-.59-2.14-1.31-6.17.93-10.69,6-12.13s9.44,1.47,11.18,7.48c2.13,7.41,4,14.88,6,22.32,1.11,4.11,2.26,8.21,3.64,13.19,5.94-10.28,11.39-19.77,16.9-29.21a27.53,27.53,0,0,1,3.54-5.09,8.64,8.64,0,0,1,14.39,8.86,61.5,61.5,0,0,1-4.25,8.27c-4.76,8.37-9.6,16.69-14.78,25.67a34.88,34.88,0,0,0,3.8-.56c10.31-2.74,20.59-5.63,30.93-8.27,8-2,13.93,2.64,12.71,9.76-.83,4.86-4.53,6.63-8.73,7.75-14.6,3.9-29.15,8-43.84,11.58-5.59,1.35-9.24,3.8-12,9-5.76,11-12.29,21.61-18.74,32.79,3.79.75,7.1,1.37,10.41,2.05,6.27,1.29,9.62,5.57,8.56,10.89-1,5-5.55,7.73-11.73,6.75-4.68-.75-9.3-1.87-14-2.56-1.17-.18-3.16.29-3.65,1.13-12.28,21-24.4,42-36.86,63.54,1.49.15,2.42.32,3.36.32,22.86,0,45.73,0,68.59.09,2.89,0,4.1-.93,5-3.58,6.44-18.94,13-37.82,19.59-56.73,2.93-8.46,7.06-11.65,12.69-9.75,5.85,2,7.2,7,4.17,15.78q-8.6,24.78-17.2,49.55c-.47,1.38-.87,2.78-1.45,4.66,12.06,0,23.76-.48,35.4.17,7.48.42,12.65-2,17.69-7.4,10.09-10.88,20.89-21.09,31.37-31.61,2.87-2.88,6.54-4.52,10-2.63,2.51,1.36,5.19,4.53,5.52,7.17s-1.5,6.3-3.51,8.47c-6.94,7.53-14.37,14.59-21.61,21.84-1,1-2,2.12-3.79,4H447c8.17,0,16.34.23,24.5-.08,5.56-.22,9.82,1.37,12.6,6.33ZM146.15,319.15c.54.43.75.72,1,.77,17.46,3.37,34.93,6.67,52.38,10.14,2.54.5,3.65-.33,4.85-2.42,11.33-19.82,22.78-39.57,34.18-59.35.55-1,.9-2,1.5-3.37-24.11,0-47.7.08-71.29-.09-3.34,0-4.53,1.2-5.52,4.12-5.17,15.3-10.55,30.52-15.83,45.78C146.9,316.22,146.54,317.77,146.15,319.15Zm125.76-54.23a17.28,17.28,0,0,0,.8,2.05c11.76,20.43,23.49,40.88,35.43,61.21.65,1.11,3.15,1.91,4.58,1.67,9.94-1.67,19.83-3.64,29.72-5.55,7.79-1.51,15.56-3.07,23.63-4.66-.62-2.1-1-3.65-1.55-5.17-5.25-15.11-10.63-30.18-15.69-45.35-1.07-3.21-2.42-4.31-5.86-4.29-22.26.18-44.53.09-66.79.09ZM146.23,192.25a14.68,14.68,0,0,0,.31,2.45c5.77,16.65,11.64,33.27,17.27,50,1,2.89,2.91,2.4,4.9,2.4h71.22a9,9,0,0,0-.46-1.76c-11.84-20.55-23.66-41.11-35.64-61.58a4.64,4.64,0,0,0-3.79-1.68c-5,.67-9.92,1.74-14.86,2.69ZM256,383.33c12.45-14.37,24.51-28.22,36.37-42.24.73-.85.41-3.32-.28-4.54q-17-29.74-34.18-59.33c-.54-.92-1.27-1.73-2.16-2.93-12.35,21.43-24.43,42.34-36.38,63.32a4.14,4.14,0,0,0,.44,3.76C231.64,355.24,243.6,369,256,383.33Zm.21-254.42a21.08,21.08,0,0,0-1.65,1.46c-11.55,13.33-23,26.73-34.7,40-1.93,2.19-.91,3.62.15,5.45q16.92,29.22,33.8,58.49c.62,1.07,1.4,2.05,2.39,3.49,12.36-21.44,24.44-42.33,36.38-63.29a4.12,4.12,0,0,0-.33-3.77C280.43,156.83,268.47,143.07,256.21,128.91Z"/><path d="M352.82,172.1c5,0,8.55,3.59,8.57,8.71s-3.56,8.88-8.43,8.93a8.7,8.7,0,0,1-8.67-8.79A8.49,8.49,0,0,1,352.82,172.1Z"/></svg>