<svg id="Calque_1" data-name="Calque 1" xmlns="http://www.w3.org/2000/svg" viewBox="0 0 512 512"><path d="M247.57,50.52c2.11,2.32,4.55,4.42,6.29,7q30.86,45.57,61.55,91.25c.72,1.08,1.5,2.11,2.5,3.52l18.28-27.1c.82-1.22,1.62-2.45,2.47-3.65,4.24-6,10.4-6,14.63.12,6.18,9,12.25,18.13,18.36,27.21L405,198.33a70.72,70.72,0,0,1-8.52,90,9.34,9.34,0,0,0-3,8.39c3.55,37.7-5.51,72.18-28,102.59-26.76,36.15-62.78,57-107.74,60.71C181.85,466.25,115,416.84,98.92,342.44c-8.88-41.09-1.25-79.63,22.21-114.63q57.41-85.62,115.3-170.89c1.65-2.44,4.2-4.28,6.33-6.4Zm-2.68,22.69c-1,1.39-1.86,2.54-2.66,3.73C207,129.16,172.05,181.53,136.56,233.55c-21,30.83-29,64.27-22.85,101.06C125.88,407.73,199.58,457.67,272,441.89,331.35,429,373.57,380.38,378,319.79c.42-5.74.06-11.54.06-17.71-1.76.72-2.85,1.16-3.94,1.62a71.26,71.26,0,0,1-87-105.69c6.28-9.28,12.46-18.64,18.86-27.84,1.69-2.42,1.8-4.11.07-6.66Q276.5,120,247.18,76.25C246.52,75.28,245.77,74.37,244.89,73.21ZM346.07,139.7A16.49,16.49,0,0,0,345,141c-15.31,22.67-30.74,45.26-45.84,68.07-7,10.61-9.45,22.62-8.08,35.21a55.21,55.21,0,1,0,100.48-37.18q-11.64-17.25-23.27-34.52C360.94,161.73,353.63,150.91,346.07,139.7Z"/><path d="M129,317.32c.34-27,6.91-48.36,20.48-67.45,3.51-5,8.23-6.21,12.24-3.35s4.39,7.51.82,12.68c-32,46.34-18.41,108.33,29.89,136,5.85,3.36,12.34,5.63,18.6,8.24,5.8,2.42,7.81,8.46,4.05,12.88-2.56,3-5.83,3.53-9.45,2.24-39.72-14.1-64.73-41.5-74.15-82.68C129.8,328.63,129.47,321.1,129,317.32Z"/><path d="M233.8,425.67a7.95,7.95,0,0,1-.21-15.89,7.95,7.95,0,1,1,.21,15.89Z"/><path d="M301.39,233.7c.78-3.14,1.85-8.76,3.64-14.15,1.65-4.93,6.22-6.84,10.53-5.12A7.76,7.76,0,0,1,319.89,225a28.27,28.27,0,0,0,9.81,34.13c4.28,2.93,4.83,7.86,2,11.55s-7.45,4.18-11.72,1.1C307.9,263.06,302,251.07,301.39,233.7Z"/><path d="M354.14,273.33a8.17,8.17,0,0,1-8.36,7.87,8.07,8.07,0,0,1-7.6-8.21,8,8,0,0,1,16,.34Z"/></svg>